<svg width="25" height="25" viewBox="0 0 25 25" fill="none" xmlns="http://www.w3.org/2000/svg">
<path d="M12.4531 8.12047C10.2243 8.12047 8.40543 9.93933 8.40543 12.1681C8.40543 14.3969 10.2243 16.2157 12.4531 16.2157C14.6818 16.2157 16.5007 14.3969 16.5007 12.1681C16.5007 9.93933 14.6818 8.12047 12.4531 8.12047ZM24.5929 12.1681C24.5929 10.492 24.6081 8.83101 24.514 7.1579C24.4199 5.21455 23.9765 3.48983 22.5555 2.06875C21.1313 0.644638 19.4096 0.204348 17.4663 0.110217C15.7902 0.0160857 14.1292 0.0312682 12.4561 0.0312682C10.78 0.0312682 9.119 0.0160857 7.4459 0.110217C5.50254 0.204348 3.77782 0.647675 2.35674 2.06875C0.932633 3.49286 0.492342 5.21455 0.398211 7.1579C0.30408 8.83404 0.319263 10.495 0.319263 12.1681C0.319263 13.8412 0.30408 15.5052 0.398211 17.1783C0.492342 19.1217 0.935669 20.8464 2.35674 22.2675C3.78086 23.6916 5.50254 24.1319 7.4459 24.226C9.12204 24.3201 10.783 24.3049 12.4561 24.3049C14.1322 24.3049 15.7932 24.3201 17.4663 24.226C19.4096 24.1319 21.1344 23.6885 22.5555 22.2675C23.9796 20.8433 24.4199 19.1217 24.514 17.1783C24.6112 15.5052 24.5929 13.8442 24.5929 12.1681ZM12.4531 18.3959C9.00665 18.3959 6.22523 15.6145 6.22523 12.1681C6.22523 8.72169 9.00665 5.94027 12.4531 5.94027C15.8995 5.94027 18.6809 8.72169 18.6809 12.1681C18.6809 15.6145 15.8995 18.3959 12.4531 18.3959ZM18.936 7.13968C18.1313 7.13968 17.4815 6.48988 17.4815 5.68521C17.4815 4.88054 18.1313 4.23073 18.936 4.23073C19.7406 4.23073 20.3904 4.88054 20.3904 5.68521C20.3907 5.87628 20.3532 6.06552 20.2802 6.24209C20.2072 6.41867 20.1001 6.5791 19.965 6.71421C19.8299 6.84932 19.6694 6.95645 19.4928 7.02946C19.3163 7.10247 19.127 7.13992 18.936 7.13968Z" fill="#E9E9E9"/>
</svg>
