<svg width="40" height="40" viewBox="0 0 40 40" fill="none" xmlns="http://www.w3.org/2000/svg">
<path d="M23.0504 31.6667C22.8014 31.6676 22.5554 31.6126 22.3305 31.5059C22.1055 31.3992 21.9073 31.2434 21.7504 31.05L13.7004 21.0501C13.4553 20.7518 13.3213 20.3778 13.3213 19.9917C13.3213 19.6057 13.4553 19.2316 13.7004 18.9334L22.0338 8.93339C22.3167 8.59302 22.7232 8.37898 23.1639 8.33835C23.6046 8.29772 24.0434 8.43382 24.3838 8.71672C24.7241 8.99962 24.9382 9.40614 24.9788 9.84685C25.0194 10.2876 24.8833 10.7264 24.6004 11.0667L17.1504 20.0001L24.3504 28.9334C24.5542 29.178 24.6837 29.4759 24.7235 29.7918C24.7633 30.1078 24.7118 30.4285 24.575 30.716C24.4383 31.0036 24.222 31.2459 23.9518 31.4144C23.6816 31.5829 23.3688 31.6704 23.0504 31.6667Z" fill="white"/>
</svg>
