<svg width="39" height="38" viewBox="0 0 39 38" fill="none" xmlns="http://www.w3.org/2000/svg">
<circle cx="18.5" cy="18.5" r="15.5" fill="white"/>
<path d="M15.2856 12.0055C15.4849 11.9055 15.7087 11.861 15.9323 11.8769C16.156 11.8929 16.3708 11.9686 16.5531 12.0958L25.0843 18.0333C25.2423 18.1431 25.3711 18.2882 25.4599 18.4563C25.5488 18.6244 25.5951 18.8108 25.5951 18.9999C25.5951 19.189 25.5488 19.3754 25.4599 19.5435C25.3711 19.7117 25.2423 19.8567 25.0843 19.9665L16.5531 25.904C16.3708 26.0311 16.1561 26.1068 15.9326 26.1227C15.7091 26.1386 15.4854 26.0942 15.2861 25.9943C15.0869 25.8944 14.9197 25.7429 14.8031 25.5564C14.6864 25.37 14.6248 25.1558 14.625 24.9374V13.0624C14.6248 12.8441 14.6863 12.63 14.8028 12.4435C14.9194 12.2571 15.0864 12.1055 15.2856 12.0055Z" fill="#333333"/>
</svg>
