<svg width="29" height="20" viewBox="0 0 29 20" fill="none" xmlns="http://www.w3.org/2000/svg">
<path d="M23.0637 0.147624H6.57414C3.33758 0.147624 0.71582 2.74111 0.71582 5.94093V14.0931C0.71582 17.2929 3.33899 19.8878 6.57414 19.8878H23.0637C26.3002 19.8878 28.922 17.2929 28.922 14.0931V5.94093C28.922 2.74111 26.2988 0.14621 23.0637 0.14621V0.147624ZM19.102 10.4128L11.3894 14.0521C11.3424 14.0748 11.2904 14.0852 11.2382 14.0823C11.1861 14.0795 11.1355 14.0635 11.0912 14.0358C11.047 14.0082 11.0104 13.9698 10.9849 13.9242C10.9595 13.8786 10.9459 13.8273 10.9456 13.7751V6.27165C10.9466 6.21918 10.9608 6.1678 10.9869 6.1223C11.0131 6.0768 11.0503 6.03865 11.0952 6.01142C11.14 5.9842 11.1911 5.96877 11.2435 5.96657C11.2959 5.96438 11.3481 5.97549 11.3951 5.99888L19.1091 9.86438C19.1605 9.89001 19.2036 9.9296 19.2335 9.97862C19.2634 10.0276 19.2789 10.0841 19.2781 10.1415C19.2774 10.1989 19.2605 10.2549 19.2293 10.3032C19.1982 10.3514 19.1541 10.3899 19.102 10.4142V10.4128Z" fill="#DF2424"/>
</svg>
